<svg width="77" height="26" viewBox="0 0 77 26" fill="none" xmlns="http://www.w3.org/2000/svg">
<path d="M5.156 25.18C3.668 25.18 2.48 24.64 1.592 23.56C0.704 22.48 0.26 21.064 0.26 19.312C0.26 17.392 0.704 15.58 1.592 13.876C2.48 12.148 3.656 10.768 5.12 9.736C6.608 8.68 8.18 8.152 9.836 8.152C10.364 8.152 10.712 8.26 10.88 8.476C11.072 8.668 11.228 9.028 11.348 9.556C11.852 9.46 12.38 9.412 12.932 9.412C14.108 9.412 14.696 9.832 14.696 10.672C14.696 11.176 14.516 12.376 14.156 14.272C13.604 17.032 13.328 18.952 13.328 20.032C13.328 20.392 13.412 20.68 13.58 20.896C13.772 21.112 14.012 21.22 14.3 21.22C14.756 21.22 15.308 20.932 15.956 20.356C16.604 19.756 17.48 18.796 18.584 17.476C18.872 17.14 19.196 16.972 19.556 16.972C19.868 16.972 20.108 17.116 20.276 17.404C20.468 17.692 20.564 18.088 20.564 18.592C20.564 19.552 20.336 20.296 19.88 20.824C18.896 22.048 17.852 23.08 16.748 23.92C15.644 24.76 14.576 25.18 13.544 25.18C12.752 25.18 12.02 24.916 11.348 24.388C10.7 23.836 10.208 23.092 9.872 22.156C8.624 24.172 7.052 25.18 5.156 25.18ZM6.452 21.544C6.98 21.544 7.484 21.232 7.964 20.608C8.444 19.984 8.792 19.156 9.008 18.124L10.34 11.5C9.332 11.524 8.396 11.908 7.532 12.652C6.692 13.372 6.02 14.332 5.516 15.532C5.012 16.732 4.76 18.004 4.76 19.348C4.76 20.092 4.904 20.644 5.192 21.004C5.504 21.364 5.924 21.544 6.452 21.544ZM20.1942 25.18C19.2822 25.18 18.6342 24.7 18.2502 23.74C17.8902 22.78 17.7102 21.244 17.7102 19.132C17.7102 16.012 18.1542 13.048 19.0422 10.24C19.2582 9.544 19.6062 9.04 20.0862 8.728C20.5902 8.392 21.2862 8.224 22.1742 8.224C22.6542 8.224 22.9902 8.284 23.1822 8.404C23.3742 8.524 23.4702 8.752 23.4702 9.088C23.4702 9.472 23.2902 10.336 22.9302 11.68C22.6902 12.64 22.4982 13.48 22.3542 14.2C22.2102 14.92 22.0902 15.808 21.9942 16.864C22.7862 14.8 23.6742 13.12 24.6582 11.824C25.6422 10.528 26.6022 9.604 27.5382 9.052C28.4982 8.5 29.3742 8.224 30.1662 8.224C31.7262 8.224 32.5062 9.004 32.5062 10.564C32.5062 11.5 32.2422 13.192 31.7142 15.64C31.2582 17.728 31.0302 19.108 31.0302 19.78C31.0302 20.74 31.3782 21.22 32.0742 21.22C32.5542 21.22 33.1182 20.932 33.7662 20.356C34.4382 19.756 35.3262 18.796 36.4302 17.476C36.7182 17.14 37.0422 16.972 37.4022 16.972C37.7142 16.972 37.9542 17.116 38.1222 17.404C38.3142 17.692 38.4102 18.088 38.4102 18.592C38.4102 19.552 38.1822 20.296 37.7262 20.824C36.6942 22.096 35.5782 23.14 34.3782 23.956C33.2022 24.772 31.8582 25.18 30.3462 25.18C29.1222 25.18 28.1982 24.832 27.5742 24.136C26.9502 23.416 26.6382 22.384 26.6382 21.04C26.6382 20.368 26.8062 19.168 27.1422 17.44C27.4542 15.928 27.6102 14.884 27.6102 14.308C27.6102 13.924 27.4782 13.732 27.2142 13.732C26.9022 13.732 26.4582 14.14 25.8822 14.956C25.3302 15.748 24.7542 16.804 24.1542 18.124C23.5782 19.444 23.1102 20.836 22.7502 22.3C22.4862 23.428 22.1742 24.196 21.8142 24.604C21.4782 24.988 20.9382 25.18 20.1942 25.18ZM38.0535 25.18C37.1415 25.18 36.4935 24.7 36.1095 23.74C35.7495 22.78 35.5695 21.244 35.5695 19.132C35.5695 16.012 36.0135 13.048 36.9015 10.24C37.1175 9.544 37.4655 9.04 37.9455 8.728C38.4495 8.392 39.1455 8.224 40.0335 8.224C40.5135 8.224 40.8495 8.284 41.0415 8.404C41.2335 8.524 41.3295 8.752 41.3295 9.088C41.3295 9.472 41.1495 10.336 40.7895 11.68C40.5495 12.64 40.3575 13.48 40.2135 14.2C40.0695 14.92 39.9495 15.808 39.8535 16.864C40.6455 14.8 41.5335 13.12 42.5175 11.824C43.5015 10.528 44.4615 9.604 45.3975 9.052C46.3575 8.5 47.2335 8.224 48.0255 8.224C49.5855 8.224 50.3655 9.004 50.3655 10.564C50.3655 11.5 50.1015 13.192 49.5735 15.64C49.1175 17.728 48.8895 19.108 48.8895 19.78C48.8895 20.74 49.2375 21.22 49.9335 21.22C50.4135 21.22 50.9775 20.932 51.6255 20.356C52.2975 19.756 53.1855 18.796 54.2895 17.476C54.5775 17.14 54.9015 16.972 55.2615 16.972C55.5735 16.972 55.8135 17.116 55.9815 17.404C56.1735 17.692 56.2695 18.088 56.2695 18.592C56.2695 19.552 56.0415 20.296 55.5855 20.824C54.5535 22.096 53.4375 23.14 52.2375 23.956C51.0615 24.772 49.7175 25.18 48.2055 25.18C46.9815 25.18 46.0575 24.832 45.4335 24.136C44.8095 23.416 44.4975 22.384 44.4975 21.04C44.4975 20.368 44.6655 19.168 45.0015 17.44C45.3135 15.928 45.4695 14.884 45.4695 14.308C45.4695 13.924 45.3375 13.732 45.0735 13.732C44.7615 13.732 44.3175 14.14 43.7415 14.956C43.1895 15.748 42.6135 16.804 42.0135 18.124C41.4375 19.444 40.9695 20.836 40.6095 22.3C40.3455 23.428 40.0335 24.196 39.6735 24.604C39.3375 24.988 38.7975 25.18 38.0535 25.18ZM58.0729 5.848C57.0649 5.848 56.3089 5.62 55.8049 5.164C55.3009 4.684 55.0489 4.024 55.0489 3.184C55.0489 2.344 55.3729 1.648 56.0209 1.096C56.6929 0.519999 57.5209 0.231999 58.5049 0.231999C59.3929 0.231999 60.1129 0.447999 60.6649 0.879999C61.2169 1.312 61.4929 1.924 61.4929 2.716C61.4929 3.676 61.1809 4.444 60.5569 5.02C59.9329 5.572 59.1049 5.848 58.0729 5.848ZM57.7849 25.18C56.2249 25.18 55.0849 24.628 54.3649 23.524C53.6689 22.42 53.3209 20.956 53.3209 19.132C53.3209 18.052 53.4529 16.672 53.7169 14.992C54.0049 13.288 54.3649 11.704 54.7969 10.24C55.0129 9.472 55.3009 8.944 55.6609 8.656C56.0209 8.368 56.5969 8.224 57.3889 8.224C58.6129 8.224 59.2249 8.632 59.2249 9.448C59.2249 10.048 58.9969 11.44 58.5409 13.624C57.9649 16.264 57.6769 18.052 57.6769 18.988C57.6769 19.708 57.7729 20.26 57.9649 20.644C58.1569 21.028 58.4809 21.22 58.9369 21.22C59.3689 21.22 59.9089 20.92 60.5569 20.32C61.2049 19.72 62.0689 18.772 63.1489 17.476C63.4369 17.14 63.7609 16.972 64.1209 16.972C64.4329 16.972 64.6729 17.116 64.8409 17.404C65.0329 17.692 65.1289 18.088 65.1289 18.592C65.1289 19.552 64.9009 20.296 64.4449 20.824C62.0689 23.728 59.8489 25.18 57.7849 25.18ZM75.1043 18.052C75.4163 18.052 75.6563 18.196 75.8243 18.484C76.0163 18.772 76.1123 19.168 76.1123 19.672C76.1123 20.536 75.9083 21.28 75.5003 21.904C74.8283 22.936 73.9403 23.74 72.8363 24.316C71.7563 24.892 70.4603 25.18 68.9483 25.18C66.6443 25.18 64.8563 24.496 63.5843 23.128C62.3123 21.736 61.6763 19.864 61.6763 17.512C61.6763 15.856 62.0243 14.32 62.7203 12.904C63.4163 11.464 64.3763 10.324 65.6003 9.484C66.8483 8.644 68.2523 8.224 69.8123 8.224C71.2043 8.224 72.3203 8.644 73.1603 9.484C74.0003 10.3 74.4203 11.416 74.4203 12.832C74.4203 14.488 73.8203 15.916 72.6203 17.116C71.4443 18.292 69.4283 19.228 66.5723 19.924C67.1483 21.028 68.1203 21.58 69.4883 21.58C70.4723 21.58 71.2763 21.352 71.9003 20.896C72.5483 20.44 73.2923 19.672 74.1323 18.592C74.4203 18.232 74.7443 18.052 75.1043 18.052ZM69.2003 11.752C68.3123 11.752 67.5563 12.268 66.9323 13.3C66.3323 14.332 66.0323 15.58 66.0323 17.044V17.116C67.4483 16.78 68.5643 16.276 69.3803 15.604C70.1963 14.932 70.6043 14.152 70.6043 13.264C70.6043 12.808 70.4723 12.448 70.2083 12.184C69.9683 11.896 69.6323 11.752 69.2003 11.752Z" fill="#5465FF"/>
</svg>
